<svg width="1440" height="171" viewBox="0 0 1440 171" fill="none" xmlns="http://www.w3.org/2000/svg">
<path fill-rule="evenodd" clip-rule="evenodd" d="M0 28.028L60 43.8404C120 59.6527 240 91.2774 360 111.043C480 130.808 600 138.714 720 111.043C840 83.3712 960 20.1219 1080 4.30953C1200 -11.5028 1320 20.1219 1380 35.9342L1440 51.7465V170.339H1380C1320 170.339 1200 170.339 1080 170.339C960 170.339 840 170.339 720 170.339C600 170.339 480 170.339 360 170.339C240 170.339 120 170.339 60 170.339H0V28.028Z" fill="#D5EEFF"/>
</svg>
